<mxfile host="app.diagrams.net" modified="2023-07-26T09:05:29.934Z" agent="Mozilla/5.0 (Windows NT 10.0; Win64; x64; rv:109.0) Gecko/20100101 Firefox/115.0" etag="-t45XU-rYgFG8_zgVN23" version="21.6.5" type="device">
  <diagram id="C5RBs43oDa-KdzZeNtuy" name="Page-1">
    <mxGraphModel dx="880" dy="442" grid="1" gridSize="10" guides="1" tooltips="1" connect="1" arrows="1" fold="1" page="1" pageScale="1" pageWidth="827" pageHeight="1169" math="0" shadow="0">
      <root>
        <mxCell id="WIyWlLk6GJQsqaUBKTNV-0" />
        <mxCell id="WIyWlLk6GJQsqaUBKTNV-1" parent="WIyWlLk6GJQsqaUBKTNV-0" />
        <mxCell id="3Om4vzX-cb80jLR6wKaC-2" style="edgeStyle=orthogonalEdgeStyle;rounded=0;orthogonalLoop=1;jettySize=auto;html=1;exitX=0.5;exitY=1;exitDx=0;exitDy=0;exitPerimeter=0;entryX=0.5;entryY=0;entryDx=0;entryDy=0;entryPerimeter=0;" edge="1" parent="WIyWlLk6GJQsqaUBKTNV-1" source="3Om4vzX-cb80jLR6wKaC-0" target="3Om4vzX-cb80jLR6wKaC-1">
          <mxGeometry relative="1" as="geometry" />
        </mxCell>
        <mxCell id="3Om4vzX-cb80jLR6wKaC-0" value="Старт" style="strokeWidth=2;html=1;shape=mxgraph.flowchart.start_1;whiteSpace=wrap;" vertex="1" parent="WIyWlLk6GJQsqaUBKTNV-1">
          <mxGeometry x="319.5" y="20" width="164" height="60" as="geometry" />
        </mxCell>
        <mxCell id="3Om4vzX-cb80jLR6wKaC-4" style="edgeStyle=orthogonalEdgeStyle;rounded=0;orthogonalLoop=1;jettySize=auto;html=1;entryX=0.547;entryY=0.05;entryDx=0;entryDy=0;entryPerimeter=0;" edge="1" parent="WIyWlLk6GJQsqaUBKTNV-1" source="3Om4vzX-cb80jLR6wKaC-1" target="3Om4vzX-cb80jLR6wKaC-3">
          <mxGeometry relative="1" as="geometry">
            <Array as="points">
              <mxPoint x="662" y="140" />
            </Array>
          </mxGeometry>
        </mxCell>
        <mxCell id="3Om4vzX-cb80jLR6wKaC-5" value="&lt;div&gt;Так&lt;/div&gt;" style="edgeLabel;html=1;align=center;verticalAlign=middle;resizable=0;points=[];" vertex="1" connectable="0" parent="3Om4vzX-cb80jLR6wKaC-4">
          <mxGeometry x="-0.2245" y="2" relative="1" as="geometry">
            <mxPoint x="1" as="offset" />
          </mxGeometry>
        </mxCell>
        <mxCell id="3Om4vzX-cb80jLR6wKaC-23" style="edgeStyle=orthogonalEdgeStyle;rounded=0;orthogonalLoop=1;jettySize=auto;html=1;entryX=0.5;entryY=0;entryDx=0;entryDy=0;entryPerimeter=0;" edge="1" parent="WIyWlLk6GJQsqaUBKTNV-1" source="3Om4vzX-cb80jLR6wKaC-1" target="3Om4vzX-cb80jLR6wKaC-18">
          <mxGeometry relative="1" as="geometry" />
        </mxCell>
        <mxCell id="3Om4vzX-cb80jLR6wKaC-25" value="&lt;div&gt;Ні&lt;/div&gt;" style="edgeLabel;html=1;align=center;verticalAlign=middle;resizable=0;points=[];" vertex="1" connectable="0" parent="3Om4vzX-cb80jLR6wKaC-23">
          <mxGeometry x="-0.68" y="5" relative="1" as="geometry">
            <mxPoint as="offset" />
          </mxGeometry>
        </mxCell>
        <mxCell id="3Om4vzX-cb80jLR6wKaC-1" value="Чи є дані на прийом?" style="strokeWidth=2;html=1;shape=mxgraph.flowchart.decision;whiteSpace=wrap;" vertex="1" parent="WIyWlLk6GJQsqaUBKTNV-1">
          <mxGeometry x="280" y="110" width="243" height="60" as="geometry" />
        </mxCell>
        <mxCell id="3Om4vzX-cb80jLR6wKaC-29" style="edgeStyle=orthogonalEdgeStyle;rounded=0;orthogonalLoop=1;jettySize=auto;html=1;exitX=1;exitY=0.5;exitDx=0;exitDy=0;" edge="1" parent="WIyWlLk6GJQsqaUBKTNV-1" source="3Om4vzX-cb80jLR6wKaC-3">
          <mxGeometry relative="1" as="geometry">
            <mxPoint x="400" y="90" as="targetPoint" />
            <Array as="points">
              <mxPoint x="770" y="240" />
              <mxPoint x="770" y="90" />
            </Array>
          </mxGeometry>
        </mxCell>
        <mxCell id="3Om4vzX-cb80jLR6wKaC-3" value="Обробка даних" style="rounded=1;whiteSpace=wrap;html=1;absoluteArcSize=1;arcSize=14;strokeWidth=2;" vertex="1" parent="WIyWlLk6GJQsqaUBKTNV-1">
          <mxGeometry x="590" y="220" width="150" height="40" as="geometry" />
        </mxCell>
        <mxCell id="3Om4vzX-cb80jLR6wKaC-9" style="edgeStyle=orthogonalEdgeStyle;rounded=0;orthogonalLoop=1;jettySize=auto;html=1;exitX=0.5;exitY=1;exitDx=0;exitDy=0;entryX=0.5;entryY=0;entryDx=0;entryDy=0;" edge="1" parent="WIyWlLk6GJQsqaUBKTNV-1" source="3Om4vzX-cb80jLR6wKaC-10" target="3Om4vzX-cb80jLR6wKaC-8">
          <mxGeometry relative="1" as="geometry" />
        </mxCell>
        <mxCell id="3Om4vzX-cb80jLR6wKaC-6" value="Формуємо JSON" style="shape=parallelogram;html=1;strokeWidth=2;perimeter=parallelogramPerimeter;whiteSpace=wrap;rounded=1;arcSize=12;size=0.23;" vertex="1" parent="WIyWlLk6GJQsqaUBKTNV-1">
          <mxGeometry x="324.5" y="330" width="154" height="40" as="geometry" />
        </mxCell>
        <mxCell id="3Om4vzX-cb80jLR6wKaC-13" style="edgeStyle=orthogonalEdgeStyle;rounded=0;orthogonalLoop=1;jettySize=auto;html=1;entryX=0.5;entryY=1;entryDx=0;entryDy=0;" edge="1" parent="WIyWlLk6GJQsqaUBKTNV-1" source="3Om4vzX-cb80jLR6wKaC-8" target="3Om4vzX-cb80jLR6wKaC-12">
          <mxGeometry relative="1" as="geometry" />
        </mxCell>
        <mxCell id="3Om4vzX-cb80jLR6wKaC-8" value="Засинаємо" style="rounded=1;whiteSpace=wrap;html=1;absoluteArcSize=1;arcSize=14;strokeWidth=2;" vertex="1" parent="WIyWlLk6GJQsqaUBKTNV-1">
          <mxGeometry x="329.5" y="460" width="144" height="50" as="geometry" />
        </mxCell>
        <mxCell id="3Om4vzX-cb80jLR6wKaC-14" style="edgeStyle=orthogonalEdgeStyle;rounded=0;orthogonalLoop=1;jettySize=auto;html=1;exitX=0.5;exitY=0;exitDx=0;exitDy=0;" edge="1" parent="WIyWlLk6GJQsqaUBKTNV-1" source="3Om4vzX-cb80jLR6wKaC-12" target="3Om4vzX-cb80jLR6wKaC-15">
          <mxGeometry relative="1" as="geometry">
            <mxPoint x="160" y="240" as="targetPoint" />
          </mxGeometry>
        </mxCell>
        <mxCell id="3Om4vzX-cb80jLR6wKaC-12" value="Спимо визначений час" style="rounded=1;whiteSpace=wrap;html=1;absoluteArcSize=1;arcSize=14;strokeWidth=2;" vertex="1" parent="WIyWlLk6GJQsqaUBKTNV-1">
          <mxGeometry x="110" y="290" width="100" height="50" as="geometry" />
        </mxCell>
        <mxCell id="3Om4vzX-cb80jLR6wKaC-16" style="edgeStyle=orthogonalEdgeStyle;rounded=0;orthogonalLoop=1;jettySize=auto;html=1;exitX=0.5;exitY=0;exitDx=0;exitDy=0;" edge="1" parent="WIyWlLk6GJQsqaUBKTNV-1" source="3Om4vzX-cb80jLR6wKaC-15">
          <mxGeometry relative="1" as="geometry">
            <mxPoint x="400" y="90" as="targetPoint" />
            <Array as="points">
              <mxPoint x="160" y="90" />
            </Array>
          </mxGeometry>
        </mxCell>
        <mxCell id="3Om4vzX-cb80jLR6wKaC-15" value="Прокидаємося" style="rounded=1;whiteSpace=wrap;html=1;absoluteArcSize=1;arcSize=14;strokeWidth=2;" vertex="1" parent="WIyWlLk6GJQsqaUBKTNV-1">
          <mxGeometry x="110" y="195" width="100" height="50" as="geometry" />
        </mxCell>
        <mxCell id="3Om4vzX-cb80jLR6wKaC-17" value="" style="edgeStyle=orthogonalEdgeStyle;rounded=0;orthogonalLoop=1;jettySize=auto;html=1;exitX=0.5;exitY=1;exitDx=0;exitDy=0;entryX=0.5;entryY=0;entryDx=0;entryDy=0;" edge="1" parent="WIyWlLk6GJQsqaUBKTNV-1" source="3Om4vzX-cb80jLR6wKaC-6" target="3Om4vzX-cb80jLR6wKaC-10">
          <mxGeometry relative="1" as="geometry">
            <mxPoint x="402" y="240" as="sourcePoint" />
            <mxPoint x="419" y="380" as="targetPoint" />
          </mxGeometry>
        </mxCell>
        <mxCell id="3Om4vzX-cb80jLR6wKaC-10" value="Відправляємо дані через LoRa" style="rounded=1;whiteSpace=wrap;html=1;absoluteArcSize=1;arcSize=14;strokeWidth=2;" vertex="1" parent="WIyWlLk6GJQsqaUBKTNV-1">
          <mxGeometry x="329.5" y="390" width="144" height="50" as="geometry" />
        </mxCell>
        <mxCell id="3Om4vzX-cb80jLR6wKaC-24" style="edgeStyle=orthogonalEdgeStyle;rounded=0;orthogonalLoop=1;jettySize=auto;html=1;entryX=0.5;entryY=0;entryDx=0;entryDy=0;" edge="1" parent="WIyWlLk6GJQsqaUBKTNV-1" source="3Om4vzX-cb80jLR6wKaC-18" target="3Om4vzX-cb80jLR6wKaC-6">
          <mxGeometry relative="1" as="geometry" />
        </mxCell>
        <mxCell id="3Om4vzX-cb80jLR6wKaC-26" value="Так" style="edgeLabel;html=1;align=center;verticalAlign=middle;resizable=0;points=[];" vertex="1" connectable="0" parent="3Om4vzX-cb80jLR6wKaC-24">
          <mxGeometry x="-0.1531" y="1" relative="1" as="geometry">
            <mxPoint as="offset" />
          </mxGeometry>
        </mxCell>
        <mxCell id="3Om4vzX-cb80jLR6wKaC-27" style="edgeStyle=orthogonalEdgeStyle;rounded=0;orthogonalLoop=1;jettySize=auto;html=1;" edge="1" parent="WIyWlLk6GJQsqaUBKTNV-1" source="3Om4vzX-cb80jLR6wKaC-18">
          <mxGeometry relative="1" as="geometry">
            <mxPoint x="260" y="90" as="targetPoint" />
          </mxGeometry>
        </mxCell>
        <mxCell id="3Om4vzX-cb80jLR6wKaC-28" value="Ні" style="edgeLabel;html=1;align=center;verticalAlign=middle;resizable=0;points=[];" vertex="1" connectable="0" parent="3Om4vzX-cb80jLR6wKaC-27">
          <mxGeometry x="-0.7187" y="1" relative="1" as="geometry">
            <mxPoint as="offset" />
          </mxGeometry>
        </mxCell>
        <mxCell id="3Om4vzX-cb80jLR6wKaC-18" value="Пройшло N часу для відправки пакету?" style="strokeWidth=2;html=1;shape=mxgraph.flowchart.decision;whiteSpace=wrap;" vertex="1" parent="WIyWlLk6GJQsqaUBKTNV-1">
          <mxGeometry x="318" y="220" width="165.5" height="80" as="geometry" />
        </mxCell>
      </root>
    </mxGraphModel>
  </diagram>
</mxfile>
